<svg id="Capa_1" data-name="Capa 1" xmlns="http://www.w3.org/2000/svg" viewBox="0 0 581.77 280.24">
	<defs>
		<style>.cls-1,.cls-2{fill:#00b1d6;}.cls-2{font-size:45.73px;font-family:FuturaStd-Medium, Futura Std;}.cls-3{letter-spacing:-0.08em;}</style></defs><title>UAQ BCO</title><path class="cls-1" d="M374.2,218.15c0-.3,0-.24-.25-.3h-.35c-17.35-.09-34.71,0-52,0H165.24V385.16c0,3.17-.06,6.22.11,9.17a101.24,101.24,0,0,0,8.94,37.52c7.87,17,19.74,29.64,34,40.36a126.46,126.46,0,0,0,23.52,13.69,151.65,151.65,0,0,0,36.8,12,4.43,4.43,0,0,0,1.95,0,152.24,152.24,0,0,0,44.58-15.82c2-1.08,4-2.19,6-3.33s3.91-2.26,5.78-3.54a118.14,118.14,0,0,0,28.6-27.17c10.64-14.26,17.59-31.77,18.63-55.65,0-.07,0-.1.06-.1,0-58.05,0-116.38,0-174.2m-2.28,167.4c0,3.92,0,7.77-.28,11.45a104.94,104.94,0,0,1-1.29,10.48c-4.65,26.59-18.36,44.77-35.49,59-2.17,1.8-4.41,3.5-6.69,5.14s-4.72,3.15-7.2,4.61a162.71,162.71,0,0,1-32.4,14.82A120.73,120.73,0,0,1,271,495.62a6.89,6.89,0,0,1-1.23.21,7.77,7.77,0,0,1-1.27-.21,122.62,122.62,0,0,1-17.6-4.56,166.84,166.84,0,0,1-32.43-14.82,104.81,104.81,0,0,1-13.84-9.75c-17.2-14.25-30.83-32.38-35.51-59a96.54,96.54,0,0,1-1.3-10.5c-.27-3.71-.27-7.51-.27-11.45V220.2c0-.08,0-.12.07-.12H365.2c2.22,0,4.64-.05,6.72.09Z" transform="translate(-165.23 -217.81)"/><path class="cls-1" d="M360.63,299.38a9.22,9.22,0,0,0-3.46.91,8.18,8.18,0,0,0-2.43,1.91,8.54,8.54,0,0,0,.73,12.13,8.9,8.9,0,0,0,6.45,2.12,8.51,8.51,0,0,0,5.85-2.79,7.91,7.91,0,0,0,2.19-6.35,8.29,8.29,0,0,0-2.84-5.77,8.54,8.54,0,0,0-6.49-2.16m3.73,14.73a7.29,7.29,0,0,1-10-4.28,6.88,6.88,0,0,1,.2-4.4,7.23,7.23,0,0,1,6-4.37,7.5,7.5,0,0,1,5.51,1.77,6.4,6.4,0,0,1,2.27,5,6.71,6.71,0,0,1-4.05,6.27" transform="translate(-165.23 -217.81)"/><path class="cls-1" d="M360.59,343.73a9.14,9.14,0,0,0-3.47.93,7.82,7.82,0,0,0-2.41,1.89,8.23,8.23,0,0,0-2.2,6.39,8,8,0,0,0,2.88,5.71,8.63,8.63,0,0,0,6.43,2.15,8.86,8.86,0,0,0,5.88-2.69,8.19,8.19,0,0,0,2.2-6.39,8.57,8.57,0,0,0-2.83-5.82,8.79,8.79,0,0,0-6.48-2.17m7.26,11.13a6.79,6.79,0,0,1-4.38,3.91,7.42,7.42,0,0,1-6.53-1,6.35,6.35,0,0,1-2.89-5.37A6.59,6.59,0,0,1,356,347.6a6.66,6.66,0,0,1,4.56-2.15,7.38,7.38,0,0,1,6.58,2.87,7.12,7.12,0,0,1,.73,6.54" transform="translate(-165.23 -217.81)"/><path class="cls-1" d="M357.79,281.55a5.06,5.06,0,0,0-4.49,3.35c-.7,1.94-.2,4.55-.36,7.34H369.7v-1.63H354.57c.06-2.26-.33-4.77.8-6.07a4,4,0,0,1,4.54-.89c1.39.77,1.88,2.37,1.71,4.78,2.18-1.24,4.78-2.94,7.08-4.33.34-.23.9-.45,1-.68.17-.55-.15-1.33,0-1.84-2.15,1.21-4.4,2.82-6.58,4-.31-2.58-2.44-4.23-5.33-4" transform="translate(-165.23 -217.81)"/><path class="cls-1" d="M352.94,368.4v1.54c2.49,0,5.08-.05,7.49,0,0,2.65.06,5.36,0,7.94h-7.48v1.68H369.7v-1.68c-2.55,0-5.19.08-7.64,0,0-2.65-.07-5.38,0-8h7.63v-1.65H353s0,.07,0,.11" transform="translate(-165.23 -217.81)"/><path class="cls-1" d="M352.86,334.52c-.18.56.15,1.41,0,1.93h16.76c0-.54,0-1.2-.05-1.64-4.87.08-9.79.13-14.71.19,4.89-3.13,9.91-6.1,14.76-9.27V323.8H352.9a.15.15,0,0,0,0,.12v1.49c4.95,0,9.85-.08,14.76-.16-4.43,2.81-9.31,5.8-13.86,8.61a4.55,4.55,0,0,0-.9.66" transform="translate(-165.23 -217.81)"/><path class="cls-1" d="M367.15,400.69c-5-.58-10.08-1.05-15.06-1.6-.08.5-.1,1.09-.19,1.62,5.56.62,11.14,1.17,16.68,1.76.31-2.48.55-5,.81-7.53-.56,0-1-.11-1.6-.15-.26,1.92-.4,4-.64,5.9" transform="translate(-165.23 -217.81)"/><path class="cls-1" d="M366.62,236.45c1.3-.75,1-3.26,1-5.45,0-2,.18-4.07-.69-5a2.77,2.77,0,0,0-1.91-.62c-2.73.1-2.49,2.74-2.49,5.62,0,1.78-.1,4.34.71,5.2a3.11,3.11,0,0,0,3.34.25m-2.8-5.31c0-.82,0-1.69,0-2.35,0-1,.12-2,1.07-2.13,1.29-.25,1.56.7,1.58,2.1,0,1.6.06,3.19,0,4.74a2.56,2.56,0,0,1-.55,1.79,1.62,1.62,0,0,1-1.56.05c-.74-.52-.54-2.78-.54-4.2" transform="translate(-165.23 -217.81)"/><path class="cls-1" d="M364,417c-1.89-.49-3.89-.95-5.72-1.55.6-2.25,1.2-4.5,1.82-6.75-.53-.16-1.06-.29-1.6-.43-.66,2.24-1.17,4.58-1.87,6.8-1.87-.53-3.8-1-5.65-1.51.62-2.28,1.22-4.59,1.85-6.85-.55-.1-1.08-.27-1.63-.39-.69,2.82-1.46,5.57-2.21,8.39,5.4,1.44,10.8,2.91,16.21,4.35.71-2.84,1.51-5.59,2.24-8.41-.52-.14-1.06-.28-1.54-.44-.66,2.23-1.2,4.61-1.9,6.79" transform="translate(-165.23 -217.81)"/><path class="cls-1" d="M357.36,231.61a5.26,5.26,0,0,1,1.56.08c1.25.52.52,3.63,1,5h1.27c-.67-1.83.54-5.51-1.79-5.68,1.91-.07,2.23-3.67,1.12-4.89-1-1.07-2.7-.38-4.36-.57-.09,3.63,0,7.42,0,11.14h1.22Zm0-4.76c0-.07,0-.1.07-.1.89.05,1.68-.17,2.16.33a3.08,3.08,0,0,1,.13,2.68c-.45.8-1.4.52-2.36.58Z" transform="translate(-165.23 -217.81)"/><path class="cls-1" d="M343.19,427.47c4.28,2.3,8.8,4.64,12.95,7-5.82.32-11.57.58-17.36.92-.29.58-.61,1.16-.95,1.7,4.91,2.7,9.76,5.45,14.69,8.11a10,10,0,0,0,.78-1.41c-4.32-2.3-8.8-4.68-13-7,5.78-.31,11.59-.59,17.35-.88.31-.6.67-1.13.93-1.75q-7.29-4-14.63-8.1a12.6,12.6,0,0,0-.8,1.44" transform="translate(-165.23 -217.81)"/><path class="cls-1" d="M350.74,234.13a14.83,14.83,0,0,1,2.41,0c.09.85.25,1.63.38,2.48a9.33,9.33,0,0,0,1.3,0c-.7-3.71-1.37-7.41-2-11.11h-1.63c-.71,3.67-1.34,7.46-2.05,11.13h1.19c.18-.8.22-1.74.44-2.51m1.17-7.19c.38,1.91.67,3.92,1,5.95h-2c.29-2,.67-3.93,1-5.95" transform="translate(-165.23 -217.81)"/><path class="cls-1" d="M345.26,413.14c.74-2.46,1.38-5.05,1.9-7.72a65.39,65.39,0,0,0,1.33-8.36c.21-2.93.42-6,.42-9.17,0-6.46,0-12.84,0-19.26V245.81a17.33,17.33,0,0,0,0-2.4c-.06-.21,0-.21-.14-.28a3.26,3.26,0,0,0-.46,0c-26.3-.16-52.5,0-78.82,0H190.59s0,.07,0,.12c0,48.27,0,96.25,0,144.44a85.13,85.13,0,0,0,3.6,25.25c4.62,14.68,13.07,25.33,23.48,34.28s22.87,15.67,37,20.77c4,1.45,8.53,2.79,13,3.9a13,13,0,0,0,2,.4,10.37,10.37,0,0,0,2-.38,124,124,0,0,0,19.94-6.55,125.71,125.71,0,0,0,19.07-9.81c11.78-7.51,21.73-16.73,28.79-29a63.33,63.33,0,0,0,5.85-13.39M192.92,397.88c-.71-5.86-.53-12.3-.53-18.66q0-67.14,0-134.1c0-.06,0-.1,0-.1H342.71a11.08,11.08,0,0,1,2.39,0c.18.08,0,.1-.06.19-2.3,2.55-4.88,4.89-7.27,7.3-5,5-10,10.06-15,15.09-.34.32-.6.71-.93,1a12,12,0,0,1-1.19.66c-2.29,1.41-4.63,2.94-7,4.27-2-7.91-4.07-15.8-6.09-23.69-2.07,7.76-4,15.7-6.05,23.46-.26,0-.46-.23-.68-.34-3.61-2.12-7.37-4.31-11-6.46,2.33,4.15,4.95,8.34,7.36,12.52-8.79,2.07-17.52,4.19-26.33,6.24,8.44,2,17.07,3.73,25.53,5.67.07.21-.15.36-.22.46L293.92,295c-.83,1.34-1.59,2.76-2.5,4.06a13.34,13.34,0,0,1-1.59,1.72c-32.22,32.21-64.29,64.64-96.51,96.87-.09.09-.2.34-.4.27m115.72-113.2c0-.14.14-.26.21-.34,1.48-1.5,3.33-3.35,4.79-4.78,7.15,1.65,14.22,3.42,21.36,5.05-8.71.09-17.58,0-26.36.07M318,291c1.47,2.18,2.8,4.53,4.22,6.77,0,.05,0,0,0,0-2-2.1-4.28-4.23-6.22-6.3l2-.47m-4.35.94a8.08,8.08,0,0,1-.3,1.35c-1.57,6.52-3.24,13.48-4.71,19.92-.11-8.69,0-17.54-.06-26.3,0-.09.06-.09.06-.05,1.25,1.24,2.48,2.45,3.83,3.75.29.33,1.13,1,1.18,1.33m.26-17.27c2.28-1.61,4.81-3,7.15-4.54-2.05,2.18-4.45,4.56-6.6,6.63-.2-.71-.37-1.41-.55-2.09m-13.71,15.53a6.91,6.91,0,0,1-1.34-.31c-6.57-1.57-13.45-3.21-19.94-4.71,8-.09,16.37-.07,24.61-.07a10.83,10.83,0,0,1,1.63,0c.18.11,0,.2-.17.3-1.19,1.24-2.26,2.35-3.48,3.57-.31.31-.92,1.19-1.31,1.22m.58,3.73c-2.51,1.6-5.1,3.14-7.6,4.72,1.91-2,4-4.09,6.1-6.13a2.84,2.84,0,0,1,.92-.84c.23.73.34,1.55.58,2.25m-2.17-15.29c-1.89-2.81-3.57-5.86-5.43-8.73,2,1.88,4.29,4.25,6.4,6.39.24.22.85.69.88.93s-.25.72-.26,1c-.5.14-1.08.21-1.59.38m5,.59c-.32-.3-1.23-.92-1.27-1.3a7.65,7.65,0,0,1,.34-1.33c.74-3.1,1.47-6.19,2.21-9.26.89-3.76,1.67-7.23,2.52-10.72.09,8.05.05,16.41.05,24.68a8.4,8.4,0,0,1,0,1.6c-.09.2-.16-.06-.28-.14-1.27-1.21-2.29-2.37-3.57-3.53m18.17,165.61a99.21,99.21,0,0,1-16.41,11.65,131.27,131.27,0,0,1-35.19,13.8,6.92,6.92,0,0,1-2.79-.45,129.9,129.9,0,0,1-23.3-8.22,114.89,114.89,0,0,1-17.92-10.06,88.1,88.1,0,0,1-15-13.06,71.66,71.66,0,0,1-6.34-7.68,68.38,68.38,0,0,1-10.6-24.42c-.29-1.28-.57-2.9-.81-4.44a10.81,10.81,0,0,1-.23-1.5c0-.27.37-.52.73-.9,32-31.94,63.62-64,95.59-96a19.4,19.4,0,0,1,3.37-3.29c2.69-1.68,5.37-3.51,8.11-5.11,2.08,8.73,4.27,17.38,6.37,26.12,2.2-8.6,4.32-17.3,6.45-26,3.94,2.25,7.9,4.78,11.83,7.14-2.23-3.93-4.75-7.77-6.91-11.67,8.26-1.82,16.47-3.7,24.71-5.55-8.58-2.13-17.23-4.18-25.78-6.3-.06-.13.17-.39.27-.59,1.84-2.92,3.76-5.91,5.64-8.88a14,14,0,0,1,1.89-2.08c5.85-5.81,11.6-11.64,17.42-17.5,1.33-1.33,2.71-2.79,4-3.94q0,70.08,0,140.05c0,2.38,0,4.67-.12,6.94s-.25,4.36-.55,6.4A106,106,0,0,1,344,411a64.31,64.31,0,0,1-8.94,19.1,75.8,75.8,0,0,1-13.21,14.79" transform="translate(-165.23 -217.81)"/><path class="cls-1" d="M344.91,236.64h1.24v-9.89h2v-1.24h-5.31a12.14,12.14,0,0,0,0,1.24,17.91,17.91,0,0,1,2.08,0Z" transform="translate(-165.23 -217.81)"/><path class="cls-1" d="M345.81,450c-.1,0-.5.49-.62.66-1.13,1.08-2,2.06-3.06,3.13-.18.19-1.07,1.29-1.26,1.29s-.41-.46-.48-.53c-1.13-1.14-2.15-2-3.24-3.14-.14-.11-.54-.37-.53-.52a7,7,0,0,1,.61-.6c1.44-1.57,2.92-3,4.27-4.45-.21-.14-.32-.37-.59-.57a2.21,2.21,0,0,0-.6-.54c-.08,0-.51.47-.63.57-1.09,1.21-1.95,2.11-3.06,3.21-.18.16-1,1.28-1.24,1.28s-.35-.42-.5-.55c-1.25-1.24-2.52-2.35-3.69-3.57,1.31-1.3,2.88-3,4.26-4.43.11-.1.62-.53.62-.63s-.46-.44-.58-.54c-.24-.25-.46-.44-.61-.57-1.61,1.73-3.59,3.68-5.26,5.48-.25.29-.76.64-.76.76s.57.55.72.77c3.91,3.54,7.59,7.43,11.38,10.88,1.94-2.11,4-4.15,6-6.21a2.1,2.1,0,0,0-.54-.61c-.08-.08-.49-.57-.59-.57" transform="translate(-165.23 -217.81)"/><path class="cls-1" d="M341.8,235.43c-.95,0-1.95,0-2.83,0v-3.87h2.6v-1.21c-.87,0-1.83,0-2.6-.06v-3.51h2.75v-1.24h-3.94c-.1,3.63,0,7.43,0,11.13h4.07Z" transform="translate(-165.23 -217.81)"/><path class="cls-1" d="M332.54,231.61a5.24,5.24,0,0,1,1.54.08c1.25.52.51,3.63,1,5h1.26c-.66-1.83.54-5.51-1.77-5.68,1.93,0,2.21-3.87,1-5s-2.63-.26-4.29-.48c-.1,3.63,0,7.42,0,11.14h1.23c0-1.67-.05-3.44,0-5m0-4.76c0-.07,0-.1.07-.1.91.05,1.65-.17,2.15.33a2.9,2.9,0,0,1,0,2.79c-.49.72-1.34.4-2.26.47Z" transform="translate(-165.23 -217.81)"/><path class="cls-1" d="M320.14,370.9a5.15,5.15,0,0,0-2.57-4.45c-1.34-3.66-5.83-4.93-10.82-4.09a33.84,33.84,0,0,0-10,3.46,7.07,7.07,0,0,1-1.37.58,6.72,6.72,0,0,1-1.45-.58,35.62,35.62,0,0,0-19.8-1.77,32.5,32.5,0,0,0-6.4,1.91,43.29,43.29,0,0,0-6.14-2,5.35,5.35,0,0,0-1.66-3.88,5.47,5.47,0,0,0-4.11-1.41,5.37,5.37,0,0,0-4.77,4.45,8.77,8.77,0,0,0-4.26,2,7.45,7.45,0,0,0-2.37,3.91,17,17,0,0,0-.17,4.62,16,16,0,0,0,3.85,9.69,2.22,2.22,0,0,1,.47.69c-1.73,4.1-3.35,8.48-3.35,14.12a43.65,43.65,0,0,0,.63,8,35.56,35.56,0,0,0,1.48,5.08,9,9,0,0,1,.57,1.64,4,4,0,0,1-.46.95,37.32,37.32,0,0,0-2.78,7.19c-2.56.56-4.48,2.22-4.51,5.14a5.22,5.22,0,0,0,4.41,5.27c1.14,2.84,3.14,5,6.84,5.22a23.51,23.51,0,0,0,3.8.16,18.33,18.33,0,0,0,10-4.1c.3-.26.87-.92,1.11-.92a4.35,4.35,0,0,1,.82.35A34.32,34.32,0,0,0,282,435a35.42,35.42,0,0,0,15.07-3.88,25,25,0,0,0,3.58,2.75,5.23,5.23,0,0,0,4,5.17,5.42,5.42,0,0,0,5.66-2.08c.17-.25.28-.63.47-.71a3,3,0,0,1,1-.13,9.29,9.29,0,0,0,3-.68c3.21-1.48,5-4.85,4.85-9.63a22.58,22.58,0,0,0-1.86-7.81c-.8-1.89-1.8-3.92-2.72-5.71a4.24,4.24,0,0,1-.4-.85,3.08,3.08,0,0,1,.28-.7,33.37,33.37,0,0,0,1.86-13,35.68,35.68,0,0,0-3-12.92,17.42,17.42,0,0,0,3.92-9.32,5.29,5.29,0,0,0,2.42-4.6m-40-5.55a33.68,33.68,0,0,1,13.06,2.21c-.88.61-1.82,1.1-2.71,1.64-2.64,1.64-5.21,3.48-7.71,5.26a61.33,61.33,0,0,0-12.36-7.4,31.65,31.65,0,0,1,9.72-1.71m-34.06,7a13.72,13.72,0,0,1,.2-2.84A6.25,6.25,0,0,1,251.1,365c.06,0,.06,0,.1,0a5.15,5.15,0,0,0,5.1,4.14,5.21,5.21,0,0,0,5-3.38c1.37.35,2.67.78,4,1.24a36.15,36.15,0,0,0-15.67,15,14.37,14.37,0,0,1-3.47-9.74M247.2,397a31.61,31.61,0,0,1,2.26-10.14,34.19,34.19,0,0,1,17.2-18.41,5.58,5.58,0,0,1,1.09-.47,7.7,7.7,0,0,1,1.88.78,59.38,59.38,0,0,1,11.6,6.85c-1.34,1.11-2.78,2.18-4.1,3.31l-4,.26c-.08.43-.5.55-1,.52,0,.21-.26.3-.54.26-.07,0,0,.2-.06.29-.41-.08-.48.23-.51.53h-.78v-.73c-.18-.49-1.19-.14-1.05-.87a1.11,1.11,0,0,0-.79-.26c-.34-.24-.24-1-1-.78a.82.82,0,0,0,0-.33c-.82-.2-2.12,0-2.39-.72h-1.51s0-.21,0-.29h-1.21c-.15,0-.06-.15-.09-.25h-.77c-.05-.06,0-.13,0-.27h-1.76c-.12.06,0,.21-.12.27h-1c-.11,0,.05.25-.06.25h-.68c-.11.53-.77.44-.82,1,0,.07-.18.07-.31.07-.18.61.15,1.27.07,2-.07.09-.23.05-.34.05,0,.88-.1,1.68-.11,2.5H254.9a11.53,11.53,0,0,0-1.38,1.2,6.82,6.82,0,0,0,2.54-.06c0,.37,0,.7,0,1.07,0,.09.22,0,.22.09a1.18,1.18,0,0,0,.25,1c-.23.17-.49.35-.42.64h0c-.11,0,.11.11.11.2s-.09-.19.05-.2a4.12,4.12,0,0,1,1.36.11c.06.07,0,.18,0,.26h.28c-.07.5.26.59.77.56v.27h.57c.45.31.09,1,.23,1.54s.89.28,1.26.55a5,5,0,0,0,.05-1c-.05-.1-.29,0-.29-.09v-1.26c0-.09-.23,0-.24-.09.08-.31-.33-.08-.28-.35s.45,0,.68,0,.58-.24.9-.3a1.07,1.07,0,0,1,.26.61c0,.09.19,0,.27.06v.49c.46.09.51.55.75.8h.82c.39.36.22,1,1.23.8.16,0,0,.19.1.27h.5c-6,6.4-11.75,13.05-16.27,20.9a33,33,0,0,1-2-13.62m22.88-11.82c-.11-.06-.09-.28-.36-.19-.05-.21-.11-.32-.33-.3,0-.52-.08-1.09.24-1.28.57.09.48-.45.57-.8a1,1,0,0,1,.76-.26c0-.31.34-.18.3-.52a2.39,2.39,0,0,0,1.33-.8h.73c.08,0,0-.19,0-.28h1.6c-1.6,1.53-3.3,2.91-4.86,4.43m4.28-1.33c.08.11-.12.28-.27.28a1.43,1.43,0,0,1,.27-.28m-1,.91c.11.31-.16.51-.47.46.11-.15.34-.23.47-.46m-.73,1.51c-.06.06-.2.05-.29.05v.54a1.48,1.48,0,0,1-.82.21,1.19,1.19,0,0,1-.22-.38s0,.06.07.09a8.55,8.55,0,0,1,1.21-1.27c.09.2,0,.51,0,.76M260,385.94c0,.07,0,.21,0,.24,0-.12-.14-.12-.31-.08a.55.55,0,0,1,.36-.16m-.36-.59v-.13c.12,0,.28,0,.31.21a.94.94,0,0,0-.31-.08m-.76-2.15v-1c0-.1-.18,0-.26,0v-1.33h.26V380c.43,0,.9-.05,1,.27v1.54c0,.08.18,0,.28.06a8.61,8.61,0,0,1,.11,1.88c-.53-.17-.94-.38-1.43-.55m.71,50.57a14.32,14.32,0,0,1-6.41,1.18c-.4,0-.75-.15-1.17-.2a12.49,12.49,0,0,1-2-.2,5.34,5.34,0,0,1-3.39-3.19,5.14,5.14,0,0,0,4.07-5.42,5.21,5.21,0,0,0-4.12-4.8,35.84,35.84,0,0,1,2.35-6,36,36,0,0,0,15.36,15.67,13.8,13.8,0,0,1-4.7,2.93m1.49-7.24A34.32,34.32,0,0,1,250.05,413a103.84,103.84,0,0,1,17.43-22.48c.16,0,0,.26.11.32,1.41.43,3.24,0,4.72-.06.06,0,.08.06.05.06-.62,0-1.14.12-1.76.17.83.1,1.87,0,2.25.59h.69c.18,0,0,.3.11.31a18.83,18.83,0,0,0,2.6,0v1.23c0,.11.16,0,.27.05v.5c.07.08.33,0,.49,0V394h.46c.12.15.33.23.35.53,1.61-.39.93,1.56,1.06,2.63-.09,0-.13.09-.26,0a1.62,1.62,0,0,1-.23.75c-.33,0-.25.29-.57.25v2.16h-.27v3.6c0,.11.15.06.27.09v.46c.13.09.35,0,.46.14a1,1,0,0,0,1.08,1c-.1.06-.32,0-.43-.08.33.45.5,1,1.41.84.19.06-.12.17-.15.31a4.85,4.85,0,0,1,.7.74v0c.51.5,1.42.54,1.38,1.6,0,.12.26,0,.26.09.5,2,.1,4.41,0,6.52-.06,1.4.3,2.82,0,4.21,0,.12-.16,0-.26.06v.76c-.58.2-1.25.33-1,1.3-.3,0-.23.32-.49.32v1h-.3v1s.19,0,.3,0a.71.71,0,0,0,.49.89,13.22,13.22,0,0,0,0,2.74c0,.12.16.07.3.07a.93.93,0,0,0,.76,1.08v.69c0,.15-.17.05-.25.06v.53a2.83,2.83,0,0,1,1.29.21c.14.76.19,1.6.26,2.4a33.22,33.22,0,0,1-22.46-6.44m19.74-19.23c.1-.11.21.1.36.1-.11.11-.23-.1-.36-.1m4.8,25.48v-3.87c.21-.19.55-.25.54-.63.13,0,.18,0,.28,0a.88.88,0,0,1,.21-.71c.11.06,0,.23,0,.28.16,0,.38-.25.59-.28a17.93,17.93,0,0,1,0-3.73h.24v-.51a1,1,0,0,1,.79-.25c.3-.13.22-.72.43-1a2.79,2.79,0,0,1,.63-.14c.38-.31.11-1.28,1-1,.23-.14.29-.44.29-.8.35-.34,1.27-.08,1-1,.17-.23.61-.23.9-.34a1.86,1.86,0,0,0,.15-.73,1.17,1.17,0,0,1,.79-.24c-.14-.84.66-.66,1-1.18a2.29,2.29,0,0,0,.08-.7c.36.11.18-.29.51-.25v-.71a.52.52,0,0,0,.28-.58c.05-.06.18,0,.25,0V413h.29v-.55a1.3,1.3,0,0,1,.77-.25c.07-.73,1.14-.47,1.38-1.06a1.24,1.24,0,0,0,.46-.07c.1-.12.1-.3.24-.41.12.12-.07.28-.09.38a2.22,2.22,0,0,0,1.25-1.33c.16,0,.23-.17.45-.09-.05-.62.64-.5.53-1.13.45-.39.88-.84,1.31-1.28,1-.15,1.2-1.11,2.1-1.33v-1.81c0-.08-.18,0-.25,0v-.78a25,25,0,0,1-2.65-.29c-.38-.55-1.06-.76-1.09-1.6a.88.88,0,0,0-.75-.23c-.25-.55-.95-.63-1.05-1.31-.34.09-.16-.35-.5-.29v-.23c-.13-.07-.37,0-.27-.27a.85.85,0,0,1-.54-.23V398s-.19,0-.28,0c.06-.47,0-.9-.53-.81v-.21c-.06-.12-.3,0-.34-.16a3.31,3.31,0,0,1-.15-.62c-.09-.08-.34,0-.51,0s0-.28-.07-.32a22.15,22.15,0,0,0-3.64,0c-.12-.18-.3-.21-.23-.53h-.34c-.27-.44-.86-.52-1.21-.84a1.32,1.32,0,0,1-.07-.49c-.55.15-.52-.32-1-.27-.06,0,0-.17,0-.27h-.3c0-.17-.22-.22-.19-.46-1.91-.05-4.05.47-5.77,0v-.34a14.32,14.32,0,0,0-3.14,0c-.1-.7.31-1.92-.54-1.85,0-.36-.45-.21-.53-.47v-.84h.3v-1.05c-.05,0-.22,0-.3,0v-1.24a.61.61,0,0,1-.5-.77c0-.1-.21,0-.27-.05V384.8c0-.1-.17,0-.23-.07,0-.48-.1-.8-.54-.75.06-.84-1.11-.44-1.81-.53,0-.08.2-.31.35-.45,2.29-2.07,5-4.13,7.49-6.1a118.72,118.72,0,0,1,26.69,29.72c.73,1.12,1.59,2.37,2.31,3.7a9.91,9.91,0,0,1,.7,1.31,6.54,6.54,0,0,1-.43,1.12,34.11,34.11,0,0,1-26.43,20m32-7.47c.35,5-1.55,8.88-6.41,8.89,0-3.07-1.94-5.35-4.84-5.54a5.18,5.18,0,0,0-5.28,3.18,8.76,8.76,0,0,1-2.16-1.68,36.36,36.36,0,0,0,14.74-16.3c1.62,3.35,3.64,6.7,3.95,11.45m-2.95-29.76a34.3,34.3,0,0,1-1.3,13.67,125.65,125.65,0,0,0-28.95-33.57,89.73,89.73,0,0,1,11.06-7.08,34,34,0,0,1,19.19,27m-1.76-12.67a36.58,36.58,0,0,0-15.29-15.38c3.18-1.42,6.78-3.27,11.17-3.47,2.58-.18,4.72.36,6,1.7-3.2.26-5.47,2.49-5.2,5.81.25,2.9,2.74,5,6,4.72a15.47,15.47,0,0,1-2.71,6.62" transform="translate(-165.23 -217.81)"/><path class="cls-1" d="M329.86,235.43c-.94,0-2,0-2.85,0v-3.87h2.6v-1.21c-.84,0-1.8,0-2.6-.06v-3.51h2.78v-1.24h-4c-.11,3.63,0,7.43-.05,11.13h4.08Z" transform="translate(-165.23 -217.81)"/><path class="cls-1" d="M322.24,465.09a11,11,0,0,1-.22-1.46c-.57-3.32-1.09-7-1.66-10.19h0c-.16.23-1.35.81-1.42,1.11a5.22,5.22,0,0,0,.18,1.21c.45,2.76,1,5.81,1.43,8.33-2.89-1.51-5.76-3-8.62-4.53a15.77,15.77,0,0,0-1.49,1.16c3.56,1.72,7,3.6,10.55,5.37,1.18,1.69,2.44,3.25,3.59,5a6.59,6.59,0,0,0,1.35-.92c-.91-1.2-1.81-2.53-2.72-3.77a6.41,6.41,0,0,1-.94-1.26" transform="translate(-165.23 -217.81)"/><path class="cls-1" d="M319.48,235.67a2.75,2.75,0,0,0,3.34.88c1.59-.71,1.31-3.22,1.31-5.63v-5.41h-1.22v5.34c0,1.62.33,4.16-.77,4.6a1.74,1.74,0,0,1-1.06,0c-1.09-.44-.75-2.93-.75-4.56v-5.38h-1.16s0,.05,0,.1c.16,2.69-.21,6.08,0,8.77a3.67,3.67,0,0,0,.34,1.29" transform="translate(-165.23 -217.81)"/><path class="cls-1" d="M313.11,236.34c1,1,3.19.07,5,.31v-1.31c-.4.06-.88.06-1.29.09.69-.89.66-2.52.66-4.29,0-3,.34-5.89-2.69-5.74-2.67.11-2.37,3.12-2.37,5.94,0,1.8-.14,4.17.73,5m.48-5.09V229c0-1,.11-2.07,1.06-2.27s1.48.47,1.56,1.47c.13,1.57,0,2.6,0,4s.09,2.9-.61,3.32a1.86,1.86,0,0,1-1.46,0c-.74-.55-.55-2.71-.55-4.15" transform="translate(-165.23 -217.81)"/><path class="cls-1" d="M308.12,235.43c-.95,0-2,0-2.85,0v-3.87h2.61v-1.21c-.87,0-1.83,0-2.61-.06v-3.51H308v-1.24h-3.95c-.09,3.63-.05,7.43-.06,11.13h4.1Z" transform="translate(-165.23 -217.81)"/><path class="cls-1" d="M297.47,468c-2.34-.18-3.9.8-5.38,1.59-1.3.77-2.59,1.41-3.85,2.2,2.73,4.84,5.44,9.7,8.12,14.63,3.69-2.28,8.34-3.37,8.91-8.68a9.18,9.18,0,0,0-2.12-6.65,8.06,8.06,0,0,0-5.68-3.09m-.38,16.21a30.79,30.79,0,0,1-1.69-2.93c-1.61-3-3.31-6-5-8.91.92-.53,1.9-1.1,2.88-1.65a7.8,7.8,0,0,1,3.56-1.14,6.4,6.4,0,0,1,4.87,2.53,8.19,8.19,0,0,1,1.91,5.49c-.29,4-3.88,4.95-6.56,6.61" transform="translate(-165.23 -217.81)"/><path class="cls-1" d="M301.34,236.43c1.25-.68,1.11-3,1.11-5,0-1.86.26-4.32-.75-5.32-.91-.84-2.55-.6-4.26-.62-.06,0-.05.05-.05.1v11c1.36-.18,2.95.3,3.95-.22m-2.76-9.58c0-.07,0-.1.09-.1.69,0,1.63-.08,2.07.24.67.55.54,2.36.54,3.91s.23,3.88-.7,4.36a4.72,4.72,0,0,1-2,.14Z" transform="translate(-165.23 -217.81)"/><path class="cls-1" d="M289.1,234.13h2.38c.09.88.28,1.62.39,2.51h1.3c-.69-3.73-1.36-7.43-2-11.13h-1.57c-.77,3.64-1.41,7.4-2.07,11.13h1.15c.17-.8.24-1.74.46-2.51m1.15-7.19c.39,1.91.69,3.9,1,5.95h-2c.31-2,.7-3.93,1-5.95" transform="translate(-165.23 -217.81)"/><path class="cls-1" d="M279.63,473.46q-2.06,8.75-4.1,17.51c.58-.08,1.11-.2,1.69-.25.47-1.78.8-3.7,1.31-5.49,2.4-.36,4.86-.7,7.34-1.05,1,1.6,1.77,3.4,2.79,4.94.54,0,1.1-.17,1.64-.21-2.9-5.28-5.75-10.59-8.79-15.75-.58.09-1.23.17-1.88.3m-.79,10.2c.64-2.92,1.3-5.83,1.9-8.76,1.53,2.58,2.92,5.23,4.34,7.86q-3.1.48-6.24.9" transform="translate(-165.23 -217.81)"/><path class="cls-1" d="M280.14,227.08c.54,3.24,1.22,6.33,1.76,9.56h1.24c.64-3.18,1.2-6.44,1.83-9.62v9.62h1.13V225.51h-2c-.54,2.93-1,6-1.56,8.92-.58-3-1.09-6-1.64-8.92H279c-.1,3.63,0,7.42,0,11.13h1.17c0-3.18-.06-6.46,0-9.56" transform="translate(-165.23 -217.81)"/><path class="cls-1" d="M273.1,236.34a3.34,3.34,0,0,0,3.23.07c1.21-.76,1-3.08,1-5.19,0-1.82.23-4.08-.64-5.13a2.43,2.43,0,0,0-2-.69c-2.75.07-2.46,2.76-2.46,5.66,0,1.91-.12,4.48.84,5.28m.4-8.13c0-.68.28-1.41,1-1.55a1.84,1.84,0,0,1,1.17.19c.56.45.42,2.41.42,3.33,0,1.26.09,2.73,0,3.73a1.89,1.89,0,0,1-.76,1.54,1.56,1.56,0,0,1-1.31-.11c-.58-.42-.53-2.2-.53-3.3,0-1.42-.06-3,0-3.83" transform="translate(-165.23 -217.81)"/><path class="cls-1" d="M260.79,474.47c-.05,0-.09.07-.09.15-1,5.47-2.15,10.87-3.16,16.35,3.2.43,6.67,1.86,9.73.7a8,8,0,0,0,5.07-6.3,8.25,8.25,0,0,0-2.72-8.29c-2.26-1.74-5.72-1.83-8.83-2.61m9.56,11.58a5.88,5.88,0,0,1-5.24,4.48c-2,.15-3.64-.55-5.66-.8.83-4.48,1.66-8.94,2.6-13.38,2.53.56,5.35.75,6.91,2.24,1.82,1.76,2.22,4.7,1.39,7.46" transform="translate(-165.23 -217.81)"/><path class="cls-1" d="M266.52,227.22c.69,3.15,1.49,6.24,2.22,9.42h1.91V225.51h-1.12c0,3.14.05,6.45,0,9.55-.76-3.2-1.55-6.32-2.28-9.55h-1.88s0,0,0,.1v11h1.16c0-3.15-.07-6.38,0-9.42" transform="translate(-165.23 -217.81)"/><path class="cls-1" d="M200.31,257a10.15,10.15,0,0,1,2.79.55,8.83,8.83,0,0,1,1.32.39,8.28,8.28,0,0,1,.62.66,19.08,19.08,0,0,0,4.75,3c.31.14.66.29.9.42a6.13,6.13,0,0,1,.61.68,6,6,0,0,0,2.15,1.78,5.24,5.24,0,0,0,4.25-.45c1.27,1.47,3.29,3,6.08,2.22a9.89,9.89,0,0,0-.08,5.63V272c.11,1.05-.08,2,0,3.07-.35.58-.72,1.05-1.15,1.68-.26.39-1,1.22-1,1.72a1.88,1.88,0,0,0,.9,1.42c.57.34,1.46.29,1.94.76s.39,1.32.53,2.16a3.28,3.28,0,0,0-1.33.71,4.37,4.37,0,0,0-1,1.08,7.47,7.47,0,0,0-.67,2.08,28,28,0,0,0-.62,7.68,8.5,8.5,0,0,0,1.17,3.7,4.1,4.1,0,0,1,.6,1,10.43,10.43,0,0,1-.15,1.72c-.33,4.11-.73,8.22-1,12.23-1,.79-2.24,1.44-3.23,2.25.32,1.13.6,2.26.93,3.36-.39.42-.79.81-1.2,1.22a12.09,12.09,0,0,0-1.11,1.21c1.84,2.67,3.56,5.41,5.44,8a17.85,17.85,0,0,1,1.82.05c-.34.8-.8,1.54-1.19,2.33a3.54,3.54,0,0,1,.46.72,18.43,18.43,0,0,1,2.5,1.07c0,1.55,0,3.12,0,4.67,1.45-.22,2.91-.41,4.3-.64,1,.86,1.91,1.86,2.93,2.71.48-.44.91-.88,1.46-1.38a7.45,7.45,0,0,1,1.56-1.33,15.92,15.92,0,0,1,2.49,0h2.44a23.19,23.19,0,0,1,.54-2.29c.94-.38,1.82.09,2.85-.13a3.6,3.6,0,0,0,1-.75,5.49,5.49,0,0,0,1.66-3.53,11.28,11.28,0,0,0-1.19-5.37,6.75,6.75,0,0,1-.65-1.55,10,10,0,0,0-.21-1.95,1.89,1.89,0,0,0-.26-.51c-.12-.22-.14-.42-.29-.49s-1,0-1.6,0a12.81,12.81,0,0,1-4.94-.14c-.88-.31-1.83-.62-2.69-.94-1.1-.41-2.36-1-3.46-.71.73-2.41,1.47-4.82,2.26-7.17,3.68-.82,7.24-1.79,10.91-2.62-1.1,4.45.76,7.91,2.35,10.59a5.82,5.82,0,0,1,.72,1.21c.09.36.13.86.2,1.27a11.53,11.53,0,0,1,.16,1.3,11.41,11.41,0,0,1-.12,2.82,6,6,0,0,1-.36.72,3.21,3.21,0,0,0,0,2.71h8.76c.76,0,2.18.27,2.73,0s.41-1.11.27-1.74a12.81,12.81,0,0,0-.57-1.66c-1.14-.33-2.1-.45-3-.67a3.79,3.79,0,0,1-2.12-1.56c-1.13-1.61-1.2-3.38-1.2-6.2,0-4,.09-8.59.09-12.79a10.23,10.23,0,0,0,0-1.84,3.8,3.8,0,0,0-.54-.88,5.24,5.24,0,0,0-2.3-2,21.12,21.12,0,0,0-2.36-.35c-1.66-.28-3-.53-4.75-.77-.41-.09-2.16-.17-2.32-.47s.13-.7.2-1c.29-1.37.44-2.84.66-4.28s.4-3,.66-4.31c5.36.65,10.81,1.21,16.17,1.91.48,2.58,1,5.09,1.51,7.68a10.07,10.07,0,0,0,1.14.05c.61-1.46,1.13-3,1.8-4.45a8.55,8.55,0,0,0,2.57.05c-.13-2-.22-4.08-.39-6.06-1.87-.65-3.86-1.19-5.75-1.83a10.91,10.91,0,0,0,3.92-6.32,15,15,0,0,0-.82-8.72c-2-4.78-5.91-7.82-11.6-8.85,1.82-6.24.48-14.54-6.48-13.87a11.26,11.26,0,0,0-7.27,3.58,19,19,0,0,0-3.52,4.55,10.12,10.12,0,0,1-1,1.77,7.31,7.31,0,0,1-1.28.57c-1.28.62-2.48,1.33-3.61,2a5,5,0,0,0-1.28-2.44,20.91,20.91,0,0,0-5.87-5.27c-1.46-.86-3.62-1.91-5.74-1.41-2,.5-2.77,2.1-3.42,4a25.24,25.24,0,0,0-12.68-.66c-.08.36-.25.86,0,1.16s.78.31,1.35.36m21,3.79c-.61-.5-1.2-1.27-.29-1.64a14.3,14.3,0,0,1,5.3,3.24c-1.77.66-3.87-.55-5-1.6m3.26,23.35c.94.34,1.37,1,2.19,1.36a5.43,5.43,0,0,0,1.39.21,4,4,0,0,1,3.33,4.15c0,.31-.39,1.74.1,1.87.32.11.74-.48.94-.88,1.07-2,2.16-3.73,3.25-5.69a6.42,6.42,0,0,0,.62-1.16,8.86,8.86,0,0,1,.51-1.27,6.39,6.39,0,0,1,1.38-1.32,6.7,6.7,0,0,1,3.72,1.43,10,10,0,0,1-2.8,3.24c-1.63.39-1.93,2.17-2.34,3.93-.51,2-.92,4-1.58,6-.46,1.39-.81,3-2.76,2.73a1.8,1.8,0,0,1-.73-.24,8.87,8.87,0,0,1-2-1.4,11.84,11.84,0,0,1-3.56-4.93,4,4,0,0,0-.52-1.22c-.51-.47-2.17.08-2.94-.19a11.43,11.43,0,0,1,1.85-6.58m22.34-9.84a11.28,11.28,0,0,0-6.26-4.2,17.31,17.31,0,0,1,1.12-2,14.42,14.42,0,0,1,7.83,3,9.14,9.14,0,0,1,3.59,7.24,10.79,10.79,0,0,1-1.79,5.74c-1.1-.3-2.16-.62-3.26-1a12.12,12.12,0,0,0-1.23-8.76m-4.55,7.11-2.58-.92a11.05,11.05,0,0,0-1.54-5.22,6,6,0,0,1,.91-1.21c2.2,1.32,3.29,3.72,3.21,7.35m-2.47,14.31c-1.13-.08-2.37-.06-3.5-.11a12.15,12.15,0,0,1,1.17-2.77H241a5.51,5.51,0,0,1-1.07,2.88m0,2.88c0,.49-.27.68-.57.88-1.43,0-2.87.11-4.29.14-.11-.12.15-.27.31-.45a1.67,1.67,0,0,1,.4-.52c1.22-.14,2.8,0,4.15-.05m-9.53,1c-1.2.06-3.33,0-4.88,0-.49,0-1.13.11-1.26-.39a.75.75,0,0,1,.15-.6h2.29a10.45,10.45,0,0,1,2.31,0c.25,0,.53.35.74.47a2.11,2.11,0,0,1,.65.52m-7.62-6.82a.1.1,0,0,1,.1-.09h2.28a19.87,19.87,0,0,0,1.75,3.48h-3.65c-.75-.61-.48-2.12-.48-3.39m21.69,29.6c.19.52,0,1.21.22,1.78s.7.78.77,1.28c-1.62-.61-3.42-1.21-3.3-3.4.59-.55,2.08-.31,2.31.34m13.3,5c.89,0,1.84-.08,1.84.64s-1.11.72-2.08.72H252c-.89,0-2.11.13-2.22-.56a.59.59,0,0,1,.46-.73,11.47,11.47,0,0,1,2.54-.07Zm-16.12-23.49c.25-.06.54-.49.72-.68.66-.84,1.37-1.67,2-2.38,2.05.16,4,.44,6.07.62.83.57,1.83,1.14,2.09,2.24a14.28,14.28,0,0,1,.09,3.19c0,3.17.08,6.43.08,9.65,0,2.32-.17,4.41.37,6.13s1.58,2.54,2.43,3.95c-1.84,0-3.69-.09-5.53-.09a19.84,19.84,0,0,0,0-3.36,12.76,12.76,0,0,0-.39-3.07,4.14,4.14,0,0,0-.76-1.11,10.5,10.5,0,0,1-2-8.54c0-.22.1-.47.18-.73a3.24,3.24,0,0,0,.26-.67,1.24,1.24,0,0,0-.77-1.06,4.21,4.21,0,0,0-1.58.34c-3.67.85-7.38,1.73-11.05,2.59-.7,2.15-1.29,4.28-1.95,6.47a4.68,4.68,0,0,0-.45,2.29c.29.32.78.26,1.19.31,3,.39,4.88,2,8.1,2.18-.28,3.56,3.95,3.62,5.41,5.64a2.29,2.29,0,0,1,.43,1.6c-.07.36-.35.89-.63.89-.51.06-1.23-1.35-1.61-1.91a8.57,8.57,0,0,0-1.71-1.83c-2.9-1.94-8.47-.8-12.24-.38-1.53.21-3.12.38-4.73.61-.86.09-1.82.35-2.48-.09-1.47-.91-.92-4.15-.76-6.16s.26-4,.41-6a6.37,6.37,0,0,1,0-.83c.08-.26.76-.58,1.09-.77,1.13-.72,2.16-1.43,3.3-2.15.18-.56.43-1,.63-1.61.88.2,1.67.44,2.5.64.48-.94.92-1.94,1.4-2.88,1.62,0,3.22,0,4.83.08.65-.85,1.09-1.91,1.69-2.81a10.16,10.16,0,0,0,2.13-.14,7,7,0,0,0,1.2-.14M264.54,289c.16.88.33,1.94.5,3,.06.3.26.72.18.91a.9.9,0,0,1-.48.44c-.44.05-1.37-.5-1.85-.47-.53,1.24-1,2.64-1.46,3.89-.54-2.12-1-4.3-1.5-6.44-5-.71-10.64-1.42-15.94-2.14a3.68,3.68,0,0,0-1-.15c-.82.15-1,2-1.19,2.8H238c.36-.92.3-2.27.92-2.9,1,0,1.34-.7,1.88-1.33a21.7,21.7,0,0,0,2.64-3.58q10.54,3,21.06,6m-3.29-18.85a12.88,12.88,0,0,1,1.72,9.15,11.89,11.89,0,0,1-4.41,6.85c-.7-.24-1.41-.47-2.14-.66,1.16-2,2.49-4,2.87-7.07a9.71,9.71,0,0,0-2.27-7.57c-3-3.6-8-5.45-14-6.07.1-.55.21-1.06.27-1.64a21.19,21.19,0,0,1,2.63-.31c7.22-.34,12.56,2.91,15.29,7.32m-18.71-13.45c2.32-.17,2.56,3,2.11,5.22-.58.05-1.27,0-1.9,0-.28-1.72-1.69-2.3-3.17-2.83.56-1,1.42-2.34,3-2.42m-5.09,5.94c.91.46,1.51,1.38,2.8,1.33.28-.73-.3-1.26-.67-1.61a5.67,5.67,0,0,0-1.47-1.08c.2-.44.52-.78.73-1.22l0,.07A3.83,3.83,0,0,1,241.6,263a1.74,1.74,0,0,1-1.92,2.16A4.73,4.73,0,0,1,237,263.6a3.58,3.58,0,0,0,.43-1m-2.45,5c.45.14.78.4,1.3.54s1.3.33,1.48-.06-.6-.85-.89-1a4.84,4.84,0,0,0-1.4-.62c.19-.38.28-.85.48-1.19,1.41.25,2.73,1,3,2.34.35,2.42-2.71,2.38-4.24,1.5.09-.48.25-1,.31-1.5m-.92,5.38a6.48,6.48,0,0,0,2.4.49c.82-.11.46-.83,0-1.13a4.92,4.92,0,0,0-2.21-.59,4.92,4.92,0,0,1,.4-1.1.11.11,0,0,1,.08-.08c1.9-.11,3.3.66,3.29,2.24,0,2.1-2.59,2.34-4.16,1.37.06-.43.17-.76.2-1.2m-.46,1.43a6.19,6.19,0,0,0,3.72.91,9.28,9.28,0,0,1,1.59,4.81,2.76,2.76,0,0,0-2.45.85,6.78,6.78,0,0,1-2.94-6.57s.08,0,.08,0m-4.92-2.71a7.07,7.07,0,0,1,2.2.71c.7.31,1.36.64,1.95.95-1.24,3.6.51,7.27,2.92,8.5a14.13,14.13,0,0,1-3.19,6.06,4.15,4.15,0,0,0-1.5-2.09c0-.48.06-.81,0-1.25-1.4.06-2.92.33-3.76-.34a4.45,4.45,0,0,1-.85-1,9.85,9.85,0,0,1-.49-1.86,8.26,8.26,0,0,1-.36-1.95c-.78,0-2.53-.08-2.62-.78,0-.2.36-.67.51-.94.51-.77,1.25-1.77,1.65-2.46,0-1.12-.09-2.21-.12-3.31.71,0,1.34,0,1.94,0s1.14-.22,1.68-.26M214,254.63a3.41,3.41,0,0,1,2.62-1.22,10.84,10.84,0,0,1,6.68,3.08,11.69,11.69,0,0,1,4.08,5.68c-.17.14-.28-.11-.35-.19-1.78-1.4-3.46-3.1-6.24-3.54-1.06,1.08-2,2.3-3.75,2.46a3.67,3.67,0,0,1-3-6.27" transform="translate(-165.23 -217.81)"/><path class="cls-1" d="M259.3,236.19a3.15,3.15,0,0,0,3.28.28c1.54-.82,1.11-4.39,1.11-6.79,0-1.57,0-3-.76-3.76a2.91,2.91,0,0,0-1.85-.53c-2.75.08-2.45,2.86-2.45,5.86,0,1.82,0,4.15.67,4.94m.55-5.13c0-.79,0-1.66,0-2.32,0-1,.18-1.94,1.09-2.07,1.28-.23,1.54.69,1.56,2.1,0,1.57.08,3.18,0,4.72a2.62,2.62,0,0,1-.52,1.8,1.53,1.53,0,0,1-1.61,0c-.73-.56-.52-2.77-.52-4.23" transform="translate(-165.23 -217.81)"/><path class="cls-1" d="M254.09,236.64h1.23v-9.89h2.05v-1.24H252.1a7,7,0,0,0,0,1.24,16.93,16.93,0,0,1,2,0Z" transform="translate(-165.23 -217.81)"/><path class="cls-1" d="M250.52,470.49c-1.09-.49-2.13-1-3.23-1.48-2.33,5.08-4.57,10.22-6.84,15.35.48.23,1,.43,1.47.66,2.07-4.59,4.08-9.24,6.19-13.83,2,1.16,5.29,1.51,5.53,4.42a3.48,3.48,0,0,1-3.71,3.93,12.4,12.4,0,0,1-2.77-1c.41,3.15.89,6.21,1.25,9.36.59.28,1.19.54,1.81.82-.35-2.57-.69-5.09-1-7.64a4.39,4.39,0,0,0,4.53-1.11,5.62,5.62,0,0,0,1.67-3.88c0-3.46-2.5-4.54-4.86-5.58" transform="translate(-165.23 -217.81)"/><path class="cls-1" d="M249.72,236.42c1.32-.86,1-3.29,1-5.6v-5.31h-1.21v5.41c0,1.6.35,4.21-.86,4.57-2.19.62-1.69-2.78-1.69-4.57v-5.41h-1.18c-.06,0-.05.05-.05.11v5.68c0,1.89-.21,4,.76,4.93a3.07,3.07,0,0,0,3.2.19" transform="translate(-165.23 -217.81)"/><path class="cls-1" d="M240.34,234.13a14.29,14.29,0,0,1,2.37,0c.13.85.28,1.63.39,2.48h1.32c-.69-3.71-1.37-7.43-2-11.13H240.8c-.78,3.64-1.39,7.4-2.05,11.13h1.13c.17-.84.24-1.74.46-2.51m1.15-7.19c.39,1.91.68,3.92,1,5.95h-1.95c.28-2,.65-4,.94-5.95" transform="translate(-165.23 -217.81)"/><path class="cls-1" d="M235,464.92c2,1.25,3.93,2.49,6,3.68.26-.48.55-.9.85-1.36-2.49-1.53-4.88-3.1-7.38-4.59q-4.47,7-8.9,14.22c2.49,1.5,4.89,3.08,7.39,4.58.27-.48.58-.87.82-1.33-2-1.31-4-2.51-6-3.8,1.09-1.65,2.1-3.39,3.19-5,2,1.24,4,2.52,6,3.72.24-.5.59-.93.84-1.43-2-1.22-4-2.49-5.94-3.73,1-1.66,2-3.37,3.14-4.94" transform="translate(-165.23 -217.81)"/><path class="cls-1" d="M233.41,236.43c1-.51,1.17-1.89,1.17-3.54s.09-3.32,0-4.73a4.2,4.2,0,0,0-.52-1.75c-.85-1.11-2.58-.9-4.52-.9,0,0,0,.05,0,.1v11c1.35-.15,2.93.26,3.9-.22m-2.67-9.58s0-.1,0-.1c.77,0,1.75-.11,2.18.33.63.6.42,2.71.42,4.06s.19,3.43-.49,4c-.43.38-1.45.26-2.15.28Z" transform="translate(-165.23 -217.81)"/><path class="cls-1" d="M224.09,234.13a14.57,14.57,0,0,1,2.39,0c.1.85.26,1.63.38,2.48h1.33c-.71-3.73-1.39-7.43-2.06-11.13h-1.58c-.78,3.64-1.39,7.4-2.08,11.13h1.15c.19-.8.25-1.74.47-2.51m1.15-7.19c.4,1.91.68,3.92,1,5.95h-2c.31-2,.67-4,1-5.95" transform="translate(-165.23 -217.81)"/><path class="cls-1" d="M227.78,459.55c-4.15,2.89-8.28,6-12.4,8.76,1.18-4.89,2.39-9.81,3.57-14.69a8.61,8.61,0,0,0-1.35-.95c-1.37,5.81-2.79,11.58-4.11,17.38a4.43,4.43,0,0,0,1.07.76c4.85-3.48,9.75-6.87,14.56-10.38a10,10,0,0,0-1.34-.88" transform="translate(-165.23 -217.81)"/><path class="cls-1" d="M226.78,275.64c-.05.72.42.85.81.79.74-.13.55-1.37,0-1.49a.89.89,0,0,0-.34,0,.73.73,0,0,0-.5.67" transform="translate(-165.23 -217.81)"/><path class="cls-1" d="M220.1,236.43c1.24-.68,1.1-3,1.1-5,0-1.86.25-4.32-.77-5.32-.88-.84-2.53-.6-4.25-.62-.05,0-.05.05-.05.1v11c1.37-.18,3,.3,4-.22m-2.77-9.58c0-.07,0-.1.07-.1.73,0,1.59-.11,2.07.24.76.55.54,2.8.54,4.23,0,1.58.18,3.56-.68,4a5.09,5.09,0,0,1-2,.14Z" transform="translate(-165.23 -217.81)"/><path class="cls-1" d="M208.34,319.82a12.15,12.15,0,0,0,8.45-3.92,11.89,11.89,0,0,0,3.35-9,11.75,11.75,0,0,0-4-8.38,12.55,12.55,0,0,0-17.6.67,12,12,0,0,0-3.25,9,11.61,11.61,0,0,0,4,8.4,12.32,12.32,0,0,0,9.08,3.26" transform="translate(-165.23 -217.81)"/><path class="cls-1" d="M214.4,225.51h-1.13c-.05,0-.05.05-.05.1v11h1.18Z" transform="translate(-165.23 -217.81)"/><path class="cls-1" d="M208.57,235.4c-.58-.39-.54-1.33-.54-2.49H206.8c-.05,1.88.16,3.07,1.07,3.56a3.18,3.18,0,0,0,3.06-.19c.95-.71,1.37-3,.64-4.37A5.38,5.38,0,0,0,210,230.4c-.66-.44-1.45-.87-1.65-1.47a2.14,2.14,0,0,1,.37-2.13c1.28-.83,2.19.58,1.86,1.93h1.24c.11-2.21-.4-3.39-2.36-3.39a2.91,2.91,0,0,0-1.33.3c-1.05.59-1.61,2.93-.73,4.32s2.71,1.73,3.18,2.87a2.88,2.88,0,0,1-.11,2.23,1.53,1.53,0,0,1-1.85.34" transform="translate(-165.23 -217.81)"/><path class="cls-1" d="M201.76,231.61c2.15-.36,2.29.77,2.35,2.51a15.78,15.78,0,0,0,.29,2.53h1.24c-.72-1.8.54-5.54-1.8-5.68,1.85-.16,2.19-3.31,1.28-4.69-.77-1.16-2.71-.67-4.52-.77-.06,3.63,0,7.42,0,11.14h1.19Zm0-4.76c0-.07,0-.1.08-.1.86.05,1.52-.15,2,.19s.72,2.5.06,3.1-1.28.24-2.17.28Z" transform="translate(-165.23 -217.81)"/><path class="cls-1" d="M188.14,448.06c.47.33.88.78,1.39,1.08,1.18-.7,2.36-1.48,3.59-2.15a9.94,9.94,0,0,1,1.23-.7c.14,0,.5.45.69.61,1.73,1.43,3.53,2.74,5.1,4.15-.61,1.77-1.13,3.55-1.75,5.31.31.29.74.56,1.09.84.09.07.16.29.28.17,1.85-5.65,3.67-11.33,5.51-17a15.26,15.26,0,0,0-1.53-1.28c-5.21,3-10.44,6-15.6,9m12.51,1.35c-.17,0-.35-.27-.57-.44-1.38-1.1-3-2.31-4.34-3.46,2.52-1.56,5.13-3,7.68-4.56-.82,2.77-1.82,5.68-2.77,8.46" transform="translate(-165.23 -217.81)"/><path class="cls-1" d="M199.12,235.43c-1,0-2,0-2.83,0,0-1.27-.06-2.66,0-3.87h2.56v-1.21c-.85,0-1.81,0-2.59-.06,0-1.17-.06-2.4,0-3.51h2.74v-1.24h-4c-.09,3.63,0,7.43-.05,11.13h4.08Z" transform="translate(-165.23 -217.81)"/><path class="cls-1" d="M197.27,428.77c-.32-.45-.57-.93-.89-1.33-4.68,2.82-9.45,5.91-14.2,8.82,1.28,2.18,2.67,4.23,3.95,6.41a7,7,0,0,0,1.4-.88c-1-1.67-2.09-3.26-3.07-5,4.21-2.73,8.57-5.34,12.81-8.07" transform="translate(-165.23 -217.81)"/><path class="cls-1" d="M192,236.64c.63-3.72,1.25-7.44,1.89-11.13h-1.22c-.44,3.14-.87,6.35-1.36,9.45-.47-3.15-.93-6.33-1.43-9.45h-1.27c.64,3.69,1.26,7.41,1.87,11.13Z" transform="translate(-165.23 -217.81)"/><path class="cls-1" d="M190.94,415.13c-4.76,1.45-9.34,3-14.06,4.45,3.44-4,7.2-8.28,10.72-12.31.21-.25.67-.67.69-.86a6.87,6.87,0,0,0-.29-.9c-.15-.41-.19-.84-.36-.89l-15.95,4.89c.1.52.32,1,.42,1.51,4.75-1.42,9.36-3,14.07-4.44-3.45,3.91-7.14,8.29-10.68,12.31-.26.31-.68.65-.7.84a4.19,4.19,0,0,0,.27.89,4.89,4.89,0,0,1,.26.93c5.4-1.61,10.69-3.25,16.06-4.88-.14-.53-.31-1-.45-1.54" transform="translate(-165.23 -217.81)"/><path class="cls-1" d="M187.38,225.51h-1.14c-.05,0-.05.05-.05.1v11h1.19Z" transform="translate(-165.23 -217.81)"/><path class="cls-1" d="M179.14,377.27a8.67,8.67,0,0,0,7.87-9.35,7.82,7.82,0,0,0-2.95-5.64,8.5,8.5,0,0,0-6.56-2.07,8.35,8.35,0,0,0-5.81,2.87,8.23,8.23,0,0,0-2.07,6.45,8,8,0,0,0,3,5.63,9,9,0,0,0,6.56,2.11m-5.31-13.92a7.3,7.3,0,0,1,4.11-1.47,7.08,7.08,0,0,1,6.84,3.94,6.87,6.87,0,0,1,.49,4.52,7.21,7.21,0,0,1-10.2,4.49,6.74,6.74,0,0,1-1.24-11.48" transform="translate(-165.23 -217.81)"/><path class="cls-1" d="M173.39,353c.19.12.42.28.53.22-.12-.67.16-1.24,0-1.82,0-.16-.34-.3-.5-.44a6.39,6.39,0,0,1-2.39-4.55,6.53,6.53,0,0,1,2.31-5.68,7.46,7.46,0,0,1,4.92-1.77,6.93,6.93,0,0,1,4.81,1.91,6.39,6.39,0,0,1,2.19,4.48,6.57,6.57,0,0,1-2.47,5.65c-.15.15-.49.3-.57.55-.18.57.11,1.18,0,1.84a8.5,8.5,0,0,0,2.11-13.65,8.62,8.62,0,0,0-6.9-2.51,8.56,8.56,0,0,0-4,15.77" transform="translate(-165.23 -217.81)"/><path class="cls-1" d="M170,299c0,1.9,0,3.72,0,5.39a8.54,8.54,0,0,0,1.15,4.31,8,8,0,0,0,7.22,3.67,8.29,8.29,0,0,0,7.18-3.7c1.45-2.3,1.17-5.91,1.16-9.75H170s0,0,0,.08m1.59,1.6s0-.09,0-.11h13.55c0,3.12.23,5.7-1,7.44a6.65,6.65,0,0,1-5.73,2.67c-2.73,0-4.68-.94-5.79-2.6s-1.14-4.32-1-7.4" transform="translate(-165.23 -217.81)"/><path class="cls-1" d="M171.47,283.81h6v7h1.63c0-2.32,0-4.75,0-7,1.94,0,4-.05,5.88.05v7h1.61v-8.66H169.84v8.66h1.63Z" transform="translate(-165.23 -217.81)"/><path class="cls-1" d="M171.61,394.08c2-.19,4-.44,5.95-.62.22,2.35.49,4.68.74,7,.58-.08,1.06-.13,1.61-.17-.19-2.36-.55-4.76-.7-7,2-.19,4-.46,5.85-.57.23,2.34.47,4.64.73,7,.55,0,1.05-.13,1.6-.15-.29-2.9-.54-5.89-.94-8.67-5.51.63-11.18,1.09-16.65,1.79.35,2.84.63,5.74.94,8.63a12.19,12.19,0,0,1,1.62-.15c-.26-2.33-.53-4.7-.75-7.05" transform="translate(-165.23 -217.81)"/><path class="cls-1" d="M177,330.1h9.53v-1.6h-7.43c-3.32,0-6.7.25-7.78-2a3.68,3.68,0,0,1,2.06-5.17,15.43,15.43,0,0,1,4.2-.28h8.95v-1.62c-3.89.14-7.65-.2-11.46,0-2.15.11-3.86.74-4.79,2a7,7,0,0,0-.31,6.17c1.13,2.13,3.68,2.48,7,2.48" transform="translate(-165.23 -217.81)"/><path class="cls-1" d="M180.45,227.14c.73,3.2,1.49,6.36,2.27,9.5h1.88V225.51h-1.12c0,3.15.06,6.46,0,9.55-.73-3.2-1.52-6.36-2.28-9.55h-1.89s0,.05,0,.11v11h1.13c0-3.14,0-6.37,0-9.5" transform="translate(-165.23 -217.81)"/><path class="cls-1" d="M176.15,236.64a2.44,2.44,0,0,0,1.46-2.29c.2-2.66-.17-6.28,0-8.84h-1.19v5.38c0,1.5.3,4.23-.81,4.6-1.37.43-1.73-.81-1.78-1.89-.08-2.74.07-5.61,0-8.09h-1.18c-.05,0,0,.05,0,.1V231c0,1.65-.21,3.8.45,4.86a2.85,2.85,0,0,0,3.08.8" transform="translate(-165.23 -217.81)"/><text class="cls-2" transform="translate(251.66 63.3)">UNIVERSIDAD<tspan x="0" y="59.81">AUTÓNOMA </tspan><tspan x="0" y="119.61">DE QUERÉ</tspan><tspan class="cls-3" x="208.41" y="119.61">T</tspan><tspan x="225.61" y="119.61">ARO</tspan></text></svg>